<svg width="48" height="37" viewBox="0 0 48 37" fill="none" xmlns="http://www.w3.org/2000/svg">
<rect x="0.72" y="1.00125" width="46.56" height="34.56" rx="11.28" stroke="#003E52" stroke-width="1.44"/>
<path d="M31.6857 18.1388L15.8619 18.1388L15.8619 17.6473L31.6857 17.6473L27.0008 12.9624L27.3285 12.6348L32.5867 17.893L27.3285 23.1513L27.0008 22.8236L31.6857 18.1388Z" fill="#003E52"/>
<path fill-rule="evenodd" clip-rule="evenodd" d="M32.5867 17.893L27.3285 12.6348L27.0008 12.9624L31.6857 17.6473L15.8619 17.6473L15.8619 18.1388L31.6857 18.1388L27.0008 22.8236L27.3285 23.1513L32.5867 17.893ZM31.0821 18.3888L28.4399 20.0049L26.6472 22.8236L27.3284 23.5048L32.9402 17.893L27.3284 12.2812L26.6472 12.9624L28.4399 16.0049L31.0821 17.3973L15.6118 17.3973L15.6118 18.3888L31.0821 18.3888Z" fill="#003E52"/>
</svg>
